<svg width="105" height="106" viewBox="0 0 105 106" fill="none" xmlns="http://www.w3.org/2000/svg">
<g filter="url(#filter0_ddd_6_32)">
<path d="M75.0797 30.5827C75.555 31.0735 75.932 31.6563 76.1893 32.2979C76.4465 32.9394 76.5789 33.627 76.5789 34.3215C76.5789 35.0159 76.4465 35.7036 76.1893 36.3451C75.932 36.9866 75.555 37.5695 75.0797 38.0602L59.8364 53.8132L73.5155 67.9491C74.4747 68.9407 75.0136 70.2855 75.0136 71.6879C75.0136 73.0902 74.4747 74.435 73.5155 75.4266C72.5563 76.4182 71.2554 76.9752 69.8989 76.9752C68.5424 76.9752 67.2415 76.4182 66.2823 75.4266L52.6083 61.2854L38.9343 75.4266C37.9751 76.4182 36.6742 76.9752 35.3177 76.9752C33.9612 76.9752 32.6603 76.4182 31.7011 75.4266C30.742 74.435 30.2031 73.0902 30.2031 71.6879C30.2031 70.2855 30.742 68.9407 31.7011 67.9491L45.3803 53.8132L30.1369 38.0602C29.662 37.5689 29.2853 36.9857 29.0284 36.3439C28.7715 35.7021 28.6394 35.0142 28.6396 34.3196C28.6399 33.625 28.7725 32.9373 29.0298 32.2956C29.2871 31.654 29.6642 31.0711 30.1395 30.5801C30.6148 30.0891 31.1789 29.6997 31.7998 29.4341C32.4206 29.1686 33.086 29.032 33.7579 29.0322C34.4298 29.0325 35.0951 29.1695 35.7157 29.4356C36.3364 29.7016 36.9003 30.0914 37.3752 30.5827L52.6083 46.3463L67.8465 30.588C68.3213 30.0967 68.8851 29.7069 69.5056 29.441C70.1262 29.175 70.7914 29.0382 71.4631 29.0382C72.1349 29.0382 72.8001 29.175 73.4206 29.441C74.0412 29.7069 74.605 30.0967 75.0797 30.588V30.5827Z" fill="#DBF3FE"/>
</g>
<defs>
<filter id="filter0_ddd_6_32" x="0.387516" y="0.780094" width="104.444" height="104.447" filterUnits="userSpaceOnUse" color-interpolation-filters="sRGB">
<feFlood flood-opacity="0" result="BackgroundImageFix"/>
<feColorMatrix in="SourceAlpha" type="matrix" values="0 0 0 0 0 0 0 0 0 0 0 0 0 0 0 0 0 0 127 0" result="hardAlpha"/>
<feOffset/>
<feGaussianBlur stdDeviation="5.13675"/>
<feColorMatrix type="matrix" values="0 0 0 0 1 0 0 0 0 1 0 0 0 0 1 0 0 0 0.2 0"/>
<feBlend mode="overlay" in2="BackgroundImageFix" result="effect1_dropShadow_6_32"/>
<feColorMatrix in="SourceAlpha" type="matrix" values="0 0 0 0 0 0 0 0 0 0 0 0 0 0 0 0 0 0 127 0" result="hardAlpha"/>
<feOffset/>
<feGaussianBlur stdDeviation="14.1261"/>
<feColorMatrix type="matrix" values="0 0 0 0 1 0 0 0 0 1 0 0 0 0 1 0 0 0 0.22 0"/>
<feBlend mode="overlay" in2="effect1_dropShadow_6_32" result="effect2_dropShadow_6_32"/>
<feColorMatrix in="SourceAlpha" type="matrix" values="0 0 0 0 0 0 0 0 0 0 0 0 0 0 0 0 0 0 127 0" result="hardAlpha"/>
<feOffset/>
<feGaussianBlur stdDeviation="10.9156"/>
<feColorMatrix type="matrix" values="0 0 0 0 1 0 0 0 0 1 0 0 0 0 1 0 0 0 0.44 0"/>
<feBlend mode="normal" in2="effect2_dropShadow_6_32" result="effect3_dropShadow_6_32"/>
<feBlend mode="normal" in="SourceGraphic" in2="effect3_dropShadow_6_32" result="shape"/>
</filter>
</defs>
</svg>
